<?xml version="1.0" encoding="UTF-8"?>
<svg xmlns="http://www.w3.org/2000/svg" width="598" height="598" viewBox="0 0 598 598" fill="none">
  <path d="M554.691 298.071C554.691 439.508 440.033 554.166 298.595 554.166C157.158 554.166 42.4999 439.508 42.4999 298.071C42.4999 156.633 157.158 41.9752 298.595 41.9752C440.033 41.9752 554.691 156.633 554.691 298.071Z" fill="#515151"></path>
  <path d="M554.691 298.071C554.691 439.508 440.033 554.166 298.595 554.166C157.158 554.166 42.4999 439.508 42.4999 298.071C42.4999 156.633 157.158 41.9752 298.595 41.9752C440.033 41.9752 554.691 156.633 554.691 298.071Z" fill="#515151"></path>
  <path fill-rule="evenodd" clip-rule="evenodd" d="M298.595 528.976C426.121 528.976 529.501 425.596 529.501 298.071C529.501 170.545 426.121 67.1649 298.595 67.1649C171.07 67.1649 67.6896 170.545 67.6896 298.071C67.6896 425.596 171.07 528.976 298.595 528.976ZM298.595 554.166C440.033 554.166 554.691 439.508 554.691 298.071C554.691 156.633 440.033 41.9752 298.595 41.9752C157.158 41.9752 42.4999 156.633 42.4999 298.071C42.4999 439.508 157.158 554.166 298.595 554.166Z" fill="url(#paint0_linear_8_689)" fill-opacity="0.8"></path>
  <g filter="url(#filter0_i_8_689)">
    <path d="M526.352 298.071C526.352 423.857 424.382 525.828 298.595 525.828C172.809 525.828 70.8383 423.857 70.8383 298.071C70.8383 172.284 172.809 70.3136 298.595 70.3136C424.382 70.3136 526.352 172.284 526.352 298.071Z" fill="#1F1F1F"></path>
  </g>
  <g filter="url(#filter1_i_8_689)">
    <path fill-rule="evenodd" clip-rule="evenodd" d="M529.501 298.071C529.501 425.596 426.121 528.976 298.595 528.976C171.07 528.976 67.6896 425.596 67.6896 298.071C67.6896 170.545 171.07 67.1649 298.595 67.1649C426.121 67.1649 529.501 170.545 529.501 298.071ZM298.595 525.828C424.382 525.828 526.352 423.857 526.352 298.071C526.352 172.284 424.382 70.3136 298.595 70.3136C172.809 70.3136 70.8383 172.284 70.8383 298.071C70.8383 423.857 172.809 525.828 298.595 525.828Z" fill="#FFFAFA" fill-opacity="0.72"></path>
  </g>
  <g style="mix-blend-mode:lighten">
    <path d="M211.392 87.2038C237.905 71.8963 267.981 63.8376 298.595 63.8376C329.21 63.8376 359.286 71.8963 385.799 87.2038L330.18 183.54C320.577 177.995 309.684 175.077 298.595 175.077C287.507 175.077 276.614 177.995 267.011 183.54L211.392 87.2038Z" fill="url(#paint1_radial_8_689)" fill-opacity="0.3"></path>
  </g>
  <g style="mix-blend-mode:lighten">
    <path d="M87.2038 385.799C71.8963 359.286 63.8376 329.21 63.8376 298.596C63.8376 267.981 71.8963 237.905 87.2037 211.392L183.54 267.011C177.995 276.614 175.077 287.507 175.077 298.596C175.077 309.684 177.995 320.577 183.54 330.18L87.2038 385.799Z" fill="url(#paint2_radial_8_689)" fill-opacity="0.3"></path>
  </g>
  <g style="mix-blend-mode:lighten">
    <path d="M385.799 509.987C359.286 525.295 329.21 533.353 298.595 533.353C267.981 533.353 237.905 525.295 211.392 509.987L267.011 413.651C276.614 419.196 287.507 422.114 298.595 422.114C309.684 422.114 320.577 419.196 330.18 413.651L385.799 509.987Z" fill="url(#paint3_radial_8_689)" fill-opacity="0.3"></path>
  </g>
  <g style="mix-blend-mode:lighten">
    <path d="M509.987 211.392C525.295 237.905 533.353 267.981 533.353 298.595C533.353 329.21 525.295 359.286 509.987 385.799L413.651 330.18C419.196 320.577 422.114 309.684 422.114 298.595C422.114 287.507 419.196 276.614 413.651 267.011L509.987 211.392Z" fill="url(#paint4_radial_8_689)" fill-opacity="0.3"></path>
  </g>
  <path d="M177.637 330.587C167.577 320.528 162.443 309.568 162.234 297.706C162.169 285.987 167.039 275.226 176.844 265.42C187.218 255.046 198.336 250.107 210.2 250.602C222.349 251.099 234.531 257.454 246.746 269.669L326.07 348.993C338.429 361.352 344.785 373.534 345.137 385.54C345.632 397.403 340.693 408.522 330.319 418.896C320.514 428.701 309.68 433.499 297.818 433.29C286.1 433.224 275.211 428.162 265.152 418.103C257.105 410.055 252.202 402.169 250.444 394.442C248.83 386.859 249.504 379.575 252.465 372.59C255.571 365.748 260.108 359.342 266.077 353.374L353.899 265.552C359.867 259.583 366.272 255.046 373.114 251.941C380.1 248.979 387.384 248.305 394.967 249.919C402.693 251.677 410.58 256.58 418.627 264.627C428.687 274.687 433.749 285.575 433.815 297.294C434.024 309.156 429.226 319.989 419.42 329.795C409.046 340.168 397.857 345.179 385.851 344.826C373.988 344.331 361.877 337.904 349.518 325.546L270.194 246.221C257.979 234.007 251.552 221.896 250.913 209.888C250.561 197.883 255.571 186.693 265.945 176.319C275.75 166.514 286.512 161.644 298.23 161.709C310.092 161.919 321.053 167.053 331.112 177.112C339.159 185.159 343.99 192.974 345.605 200.557C347.362 208.284 346.689 215.568 343.583 222.41C340.621 229.395 336.156 235.872 330.188 241.841L242.366 329.663C236.397 335.631 229.92 340.097 222.934 343.058C216.093 346.164 208.808 346.838 201.082 345.08C193.499 343.466 185.684 338.635 177.637 330.587ZM192.345 315.879C197.949 321.484 203.68 324.088 209.536 323.692C215.679 323.298 221.45 320.4 226.85 315L315.525 226.326C320.925 220.926 323.751 215.225 324.003 209.225C324.542 203.226 322.008 197.425 316.404 191.82C311.374 186.79 305.785 183.901 299.636 183.152C293.631 182.547 287.502 185.371 281.249 191.624C275.139 197.734 272.245 204.077 272.567 210.652C273.032 217.086 277.072 224.11 284.689 231.727L364.013 311.051C371.629 318.667 378.654 322.708 385.087 323.172C391.662 323.495 398.005 320.601 404.116 314.49C410.368 308.237 413.12 302.037 412.372 295.888C411.766 289.883 408.949 284.365 403.919 279.336C398.315 273.731 392.441 271.126 386.299 271.52C380.442 271.916 374.814 274.814 369.414 280.214L280.739 368.889C275.339 374.289 272.37 379.989 271.832 385.987C271.58 391.988 274.256 397.79 279.86 403.395C284.89 408.424 290.407 411.242 296.412 411.847C302.561 412.596 308.762 409.844 315.015 403.591C321.125 397.481 323.948 391.209 323.484 384.776C323.161 378.2 319.192 371.105 311.576 363.488L232.251 284.164C224.635 276.548 217.539 272.578 210.964 272.256C204.531 271.791 198.259 274.614 192.148 280.725C185.896 286.977 183.072 293.106 183.677 299.112C184.426 305.26 187.315 310.85 192.345 315.879Z" fill="url(#paint5_linear_8_689)"></path>
  <defs>
    <filter id="filter0_i_8_689" x="70.8383" y="70.3136" width="455.514" height="455.514" color-interpolation-filters="sRGB">
      <feGaussianBlur stdDeviation="34.1111"></feGaussianBlur>
    </filter>
    <filter id="filter1_i_8_689" x="67.6896" y="67.1649" width="461.812" height="461.812" color-interpolation-filters="sRGB">
      <feGaussianBlur stdDeviation="34.1111"></feGaussianBlur>
    </filter>
    <linearGradient id="paint0_linear_8_689" x1="298.595" y1="41.9752" x2="298.595" y2="554.166" gradientUnits="userSpaceOnUse">
      <stop stop-color="white"></stop>
      <stop offset="1" stop-color="#636363"></stop>
    </linearGradient>
    <radialGradient id="paint1_radial_8_689" cx="0" cy="0" r="1" gradientUnits="userSpaceOnUse" gradientTransform="translate(298.595 238.245) rotate(-45) scale(174.407)">
      <stop stop-color="white" stop-opacity="0.54"></stop>
      <stop offset="1" stop-color="white" stop-opacity="0"></stop>
    </radialGradient>
    <radialGradient id="paint2_radial_8_689" cx="0" cy="0" r="1" gradientUnits="userSpaceOnUse" gradientTransform="translate(238.245 298.596) rotate(-135) scale(174.407)">
      <stop stop-color="white" stop-opacity="0.54"></stop>
      <stop offset="1" stop-color="white" stop-opacity="0"></stop>
    </radialGradient>
    <radialGradient id="paint3_radial_8_689" cx="0" cy="0" r="1" gradientUnits="userSpaceOnUse" gradientTransform="translate(298.595 358.946) rotate(135) scale(174.407)">
      <stop stop-color="white" stop-opacity="0.54"></stop>
      <stop offset="1" stop-color="white" stop-opacity="0"></stop>
    </radialGradient>
    <radialGradient id="paint4_radial_8_689" cx="0" cy="0" r="1" gradientUnits="userSpaceOnUse" gradientTransform="translate(358.946 298.595) rotate(45) scale(174.407)">
      <stop stop-color="white" stop-opacity="0.54"></stop>
      <stop offset="1" stop-color="white" stop-opacity="0"></stop>
    </radialGradient>
    <linearGradient id="paint5_linear_8_689" x1="298" y1="144" x2="298" y2="451" gradientUnits="userSpaceOnUse">
      <stop stop-color="white"></stop>
      <stop offset="1" stop-color="#A3A3A3"></stop>
    </linearGradient>
  </defs>
</svg>
