<svg xmlns="http://www.w3.org/2000/svg" width="797" height="900" viewBox="0 0 797 900" fill="none"><rect width="797" height="900" fill="url(#paint0_linear_509_2)"></rect><rect x="64" y="64" width="669" height="2" rx="1" fill="#D9D9D9" fill-opacity="0.12"></rect><rect x="64" y="141" width="669" height="2" rx="1" fill="#D9D9D9" fill-opacity="0.12"></rect><rect x="64" y="218" width="669" height="2" rx="1" fill="#D9D9D9" fill-opacity="0.12"></rect><rect x="64" y="295" width="669" height="2" rx="1" fill="#D9D9D9" fill-opacity="0.12"></rect><rect x="64" y="372" width="669" height="2" rx="1" fill="#D9D9D9" fill-opacity="0.12"></rect><rect x="64" y="449" width="669" height="2" rx="1" fill="#D9D9D9" fill-opacity="0.12"></rect><rect x="64" y="526" width="669" height="2" rx="1" fill="#D9D9D9" fill-opacity="0.12"></rect><rect x="64" y="603" width="669" height="2" rx="1" fill="#D9D9D9" fill-opacity="0.12"></rect><rect x="64" y="680" width="669" height="2" rx="1" fill="#D9D9D9" fill-opacity="0.12"></rect><rect x="64" y="757" width="669" height="2" rx="1" fill="#D9D9D9" fill-opacity="0.12"></rect><rect x="64" y="834" width="669" height="2" rx="1" fill="#D9D9D9" fill-opacity="0.12"></rect><defs><linearGradient id="paint0_linear_509_2" x1="797" y1="-2.10341e-05" x2="398.5" y2="900" gradientUnits="userSpaceOnUse"><stop stop-color="#343434" stop-opacity="0.9"></stop><stop offset="1" stop-color="#141414" stop-opacity="0.9"></stop></linearGradient></defs></svg>