<?xml version="1.0" encoding="utf-8"?>
<svg xmlns="http://www.w3.org/2000/svg" viewBox="0 0 50 50" fill="#8c8c8c"><path d="M 31.09375 2 C 30.792969 2 30.605469 2.085938 30.40625 2.1875 C 30.207031 2.386719 28.789063 3.6875 28.1875 5.1875 C 24.6875 6.789063 15.6875 12.09375 14.1875 23.59375 C 14.488281 23.695313 14.800781 23.898438 15 24 C 15.300781 23.800781 15.8125 23.605469 16.3125 23.40625 C 17.679688 14.5625 23.828125 9.921875 27.5625 7.875 C 27.476563 9.863281 27.851563 13.734375 31.3125 16.3125 C 33.011719 17.511719 35.007813 18 36.90625 18 C 39.105469 18 41.101563 17.414063 42.5 16.8125 C 42.699219 16.613281 42.898438 16.394531 43 16.09375 C 43 15.792969 43.011719 15.511719 42.8125 15.3125 C 42.414063 14.710938 41.992188 13.988281 41.59375 13.1875 C 40.695313 11.488281 39.601563 9.488281 37.5 8.1875 C 35.394531 6.902344 33.179688 6.339844 31.5 6.0625 C 32.238281 5.429688 32.921875 4.804688 33.1875 4.40625 C 33.386719 4.105469 33.394531 3.613281 33.09375 3.3125 C 32.195313 2.113281 31.195313 2 31.09375 2 Z M 26.3125 12.5 C 25.710938 17.199219 26.414063 21.710938 27.3125 24.8125 L 28.09375 24.8125 C 28.292969 24.511719 28.695313 24.09375 29.09375 23.59375 C 28.492188 21.492188 28.09375 18.8125 28.09375 15.8125 C 27.195313 14.710938 26.613281 13.601563 26.3125 12.5 Z M 35.3125 23 C 33.960938 23.089844 32.8125 23.46875 32.09375 23.8125 C 30.695313 24.511719 30 25.488281 29.5 26.1875 C 29.398438 26.386719 29.195313 26.6875 29.09375 26.6875 L 27.1875 26.6875 C 28.789063 28.585938 30 31.195313 30 35.09375 C 30 39.195313 28.105469 42.804688 25.40625 45.40625 C 27.605469 47.007813 30.207031 47.90625 32.90625 47.90625 C 34.90625 47.90625 36.914063 47.398438 38.8125 46.5 C 44.3125 43.898438 48.113281 35.792969 44.8125 29.09375 C 42.269531 23.867188 38.289063 22.796875 35.3125 23 Z M 11 25 C 8.898438 25 2 25.6875 2 35.1875 C 2 42.085938 8 48 15 48 C 21.101563 48 27.992188 42.488281 28.09375 35.1875 C 28.09375 26.789063 21.59375 25 19.09375 25 C 17.492188 25 16.386719 25.601563 15.6875 26 C 15.488281 26.101563 15.195313 26.3125 15.09375 26.3125 C 14.992188 26.3125 14.605469 26.101563 14.40625 26 C 13.605469 25.601563 12.5 25 11 25 Z" fill="#8c8c8c"/></svg>
