<?xml version="1.0" encoding="utf-8"?>
<svg xmlns="http://www.w3.org/2000/svg" viewBox="0 0 50 50" fill="#8c8c8c"><path d="M 8.5 9 A 4.5 4.5 0 0 0 4.2773438 15.041016 C 3.4909966 14.959003 2.5599958 15.008644 1.7304688 15.492188 C 0.41946875 16.257188 0.089578125 17.868813 0.017578125 18.882812 C -0.020421875 19.418813 0.36934375 19.880312 0.90234375 19.945312 C 1.7903438 20.053313 3.1806875 20.061937 4.3046875 19.335938 C 5.1587336 18.784397 5.5780661 17.884959 5.7890625 17.089844 A 4.5 4.5 0 0 0 8.5 18 A 4.5 4.5 0 0 0 8.5 9 z M 45.5 9 A 4.5 4.5 0 0 0 45.5 18 A 4.5 4.5 0 0 0 45.5 9 z M 21 11 C 20.448 11 20 11.448 20 12 L 20 15.277344 C 19.549 15.014344 18.995437 14.90575 18.398438 15.09375 C 17.698438 15.31375 17.147344 15.93325 17.027344 16.65625 C 16.819344 17.91325 17.783 19 19 19 C 19.366 19 19.705 18.893656 20 18.722656 L 20 24 L 22.126953 24 C 22.571953 22.276 24.139 21 26 21 C 27.861 21 29.427047 22.276 29.873047 24 L 32 24 L 32 22.347656 L 29.123047 20.691406 C 27.781047 19.967406 26.936531 18.463719 27.019531 16.886719 C 27.094531 15.452719 27.893297 14.185094 29.154297 13.496094 C 30.042297 13.010094 31.045047 12.88275 31.998047 13.09375 L 31.998047 12 C 31.998047 11.448 31.550047 11 30.998047 11 L 21 11 z M 31.113281 14.992188 C 30.054844 14.998844 29.079828 15.816938 29.017578 16.992188 C 28.974578 17.806188 29.404094 18.570031 30.121094 18.957031 L 37.009766 22.925781 C 37.244766 23.060781 37.505391 23.146734 37.775391 23.177734 L 40 23.439453 L 40 23.478516 L 44.134766 24.013672 C 44.681766 24.084672 45.067094 24.586766 44.996094 25.134766 C 44.931094 25.639766 44.502812 26.005859 44.007812 26.005859 C 43.964813 26.005859 43.920953 26.003047 43.876953 25.998047 L 40 25.496094 L 40 40 C 40 40.552 40.448 41 41 41 L 49 41 C 49.552 41 50 40.552 50 40 L 50 23 L 49.992188 22.998047 C 49.991188 20.807047 48.227969 19.033859 46.042969 19.005859 L 38.595703 19.150391 L 32.167969 15.273438 C 31.827219 15.078688 31.466094 14.989969 31.113281 14.992188 z M 46.042969 19.005859 L 46.109375 19.003906 L 45.992188 19 C 46.009188 19 46.025969 19.005859 46.042969 19.005859 z M 9 19 C 6.183 19 3.8349687 21.020641 3.4179688 23.806641 L 3.1582031 25.535156 L 3.0683594 26.404297 L 10.121094 33.121094 C 10.683094 33.683094 11.446188 34 12.242188 34 L 20 34 C 21.105 34 22 33.105 22 32 C 22 30.895 21.105 30 20 30 L 15.460938 30 L 13 30 C 12.735 30 12.479969 29.895031 12.292969 29.707031 L 10.292969 27.707031 C 9.9019687 27.316031 9.9019688 26.683969 10.292969 26.292969 C 10.683969 25.901969 11.316031 25.901969 11.707031 26.292969 L 13.414062 28 L 15.150391 28 L 15.134766 27.904297 L 14.582031 23.806641 C 14.165031 21.021641 11.817 19 9 19 z M 25.880859 23.003906 C 24.83157 23.066004 24 23.935125 24 25 C 24 25.366 24.106344 25.705 24.277344 26 L 20 26 L 20 28 C 22.206 28 24 29.794 24 32 C 24 34.206 22.206 36 20 36 L 20 37 C 20 37.552 20.448 38 21 38 L 31 38 C 31.552 38 32 37.552 32 37 L 32 34 C 30.895 34 30 33.105 30 32 C 30 30.895 30.895 30 32 30 L 32 26 L 27.722656 26 C 27.985656 25.549 28.09425 24.995437 27.90625 24.398438 C 27.68625 23.698438 27.065797 23.147344 26.341797 23.027344 C 26.184797 23.001469 26.030758 22.995035 25.880859 23.003906 z M 2.6953125 28.630859 L 1.0117188 39.851562 C 0.96871875 40.139562 1.0521875 40.431344 1.2421875 40.652344 C 1.4321875 40.873344 1.709 41 2 41 L 16 41 L 16.001953 41 C 16.050953 41 16.098437 40.995281 16.148438 40.988281 C 16.191437 40.981281 16.226578 40.957312 16.267578 40.945312 C 16.332578 40.927312 16.395125 40.908906 16.453125 40.878906 C 16.510125 40.848906 16.560375 40.812438 16.609375 40.773438 C 16.660375 40.733438 16.706047 40.693531 16.748047 40.644531 C 16.790047 40.596531 16.821516 40.545234 16.853516 40.490234 C 16.885516 40.434234 16.914547 40.380359 16.935547 40.318359 C 16.957547 40.255359 16.966609 40.190047 16.974609 40.123047 C 16.980609 40.080047 17 40.044 17 40 C 17 39.974 16.986375 39.951781 16.984375 39.925781 C 16.982375 39.900781 16.992281 39.876563 16.988281 39.851562 L 16.390625 36 L 12.242188 36 C 10.907187 36 9.6520313 35.479156 8.7070312 34.535156 L 2.6953125 28.630859 z" fill="#8c8c8c"/></svg>
