<svg xmlns="http://www.w3.org/2000/svg" viewBox="0 0 48 48"><path fill="#7cb342" d="M17.003,22L17,21.016c0-1.168-0.484-2.277-1.328-3.043c-0.407-0.37-1.04-0.342-1.412,0.068 c-0.371,0.409-0.341,1.041,0.068,1.412c0.492,0.447,0.623,0.996,0.657,1.347c-0.799-0.792-1.875-1.24-2.975-1.209 c-0.552,0.015-0.988,0.473-0.975,1.025c0.014,0.543,0.459,0.975,1,0.975c0.008,0,0.017,0,0.025,0 c0.636-0.021,1.106,0.267,1.379,0.496c-0.85,0.173-1.627,0.603-2.207,1.242c-0.371,0.409-0.341,1.041,0.068,1.412 c0.191,0.174,0.432,0.26,0.672,0.26c0.271,0,0.543-0.11,0.74-0.328C13.265,24.065,13.99,24,14.279,24H16h4v-2H17.003z"/><path fill="#7cb342" d="M17.003,30L17,29.016c0-1.168-0.484-2.277-1.328-3.043c-0.407-0.37-1.04-0.342-1.412,0.068 c-0.371,0.409-0.341,1.041,0.068,1.412c0.492,0.447,0.623,0.996,0.657,1.347c-0.799-0.792-1.875-1.24-2.975-1.209 c-0.552,0.015-0.988,0.473-0.975,1.025c0.014,0.543,0.459,0.975,1,0.975c0.008,0,0.017,0,0.025,0 c0.636-0.021,1.106,0.267,1.379,0.496c-0.85,0.173-1.627,0.603-2.207,1.242c-0.371,0.409-0.341,1.041,0.068,1.412 c0.191,0.174,0.432,0.26,0.672,0.26c0.271,0,0.543-0.11,0.74-0.328C13.265,32.065,13.99,32,14.279,32H16h4v-2H17.003z"/><path fill="#558b2f" d="M32.449,9.515l-2.892-1.752l0.02,5.463l2.879-1.773C33.179,11.008,33.176,9.955,32.449,9.515z"/><path fill="#558b2f" d="M32.463,14.511l-2.892-1.752l0.02,5.463l2.879-1.773C33.194,16.004,33.19,14.951,32.463,14.511z"/><path fill="#558b2f" d="M32.478,19.507l-2.892-1.752l0.02,5.463l2.879-1.773C33.208,21,33.204,19.948,32.478,19.507z"/><path fill="#558b2f" d="M32.492,24.504L29.6,22.751l0.02,5.463l2.879-1.773C33.222,25.997,33.218,24.944,32.492,24.504z"/><path fill="#558b2f" d="M32.506,29.5l-2.892-1.752l0.02,5.463l2.879-1.773C33.236,30.993,33.233,29.94,32.506,29.5z"/><path fill="#7cb342" d="M30,33V10c0-1.607-0.772-3.116-2.077-4.057c-1.304-0.938-2.979-1.192-4.504-0.687l-6,2 c-2.62,0.873-4.036,3.704-3.163,6.324c0.81,2.427,3.297,3.819,5.744,3.318V33c-2.761,0-5,2.238-5,5s2.239,5,5,5h10 c2.761,0,5-2.238,5-5S32.761,33,30,33z"/><circle cx="20" cy="11" r="2" fill="#fff"/><circle cx="19" cy="11" r="1" fill="#212121"/><circle cx="23" cy="25" r="1" fill="#558b2f"/><circle cx="27" cy="25" r="1" fill="#558b2f"/><circle cx="26" cy="11" r="2" fill="#fff"/><circle cx="25" cy="11" r="1" fill="#212121"/><path fill="#212121" d="M29,40h-8c-1.105,0-2-0.895-2-2v0c0-1.105,0.895-2,2-2h8c1.105,0,2,0.895,2,2v0 C31,39.105,30.105,40,29,40z"/><polygon fill="#fafafa" points="22,37 21,40 23,40"/><polygon fill="#fafafa" points="24,37 23,40 25,40"/><polygon fill="#fafafa" points="26,37 25,40 27,40"/><polygon fill="#fafafa" points="28,37 27,40 29,40"/></svg>