<svg xmlns="http://www.w3.org/2000/svg" viewBox="0 0 48 48"><path fill="#03a9f4" d="M25,43h-9c-2.762,0-5-2.238-5-5s2.238-5,5-5h9c1.103,0,2-0.897,2-2s-0.897-2-2-2h-4 c-2.762,0-5-2.238-5-5s2.238-5,5-5h4c6.617,0,12,5.383,12,12S31.617,43,25,43z"/><path fill="#03a9f4" d="M25,29h-4c-2.762,0-5-2.238-5-5s2.238-5,5-5h4c1.103,0,2-0.897,2-2s-0.897-2-2-2h-9 c-2.762,0-5-2.238-5-5s2.238-5,5-5h9c6.617,0,12,5.383,12,12S31.617,29,25,29z"/><circle cx="20" cy="24" r="1" fill="#0277bd"/><circle cx="24" cy="24" r="1" fill="#0277bd"/><circle cx="19" cy="10" r="2" fill="#fff"/><circle cx="19" cy="9" r="1" fill="#212121"/><circle cx="27" cy="10" r="2" fill="#fff"/><circle cx="27" cy="9" r="1" fill="#212121"/><circle cx="27" cy="38" r="2" fill="#fff"/><circle cx="27" cy="39" r="1" fill="#212121"/><circle cx="19" cy="38" r="2" fill="#fff"/><circle cx="19" cy="39" r="1" fill="#212121"/><polygon fill="#bdbdbd" points="18.5,30 17,33 20,33"/><polygon fill="#bdbdbd" points="22.5,30 21,33 24,33"/><polygon fill="#bdbdbd" points="22.5,18 24,15 21,15"/><polygon fill="#bdbdbd" points="18.5,18 20,15 17,15"/></svg>