<svg xmlns="http://www.w3.org/2000/svg" viewBox="0 0 48 48"><path fill="#00695c" d="M18,8c-0.553,0-1-0.447-1-1V4c0-0.553,0.447-1,1-1s1,0.447,1,1v3C19,7.553,18.553,8,18,8z"/><path fill="#00695c" d="M15.001,9c-0.34,0-0.671-0.173-0.858-0.485L12.61,5.962c-0.284-0.474-0.131-1.088,0.343-1.372 c0.474-0.285,1.088-0.13,1.372,0.343l1.532,2.553c0.284,0.474,0.131,1.088-0.343,1.372C15.354,8.954,15.176,9,15.001,9z"/><path fill="#00695c" d="M20.839,9.032c0.34,0,0.671-0.173,0.858-0.485l1.532-2.553c0.284-0.474,0.131-1.088-0.343-1.372 c-0.474-0.285-1.088-0.13-1.372,0.343l-1.532,2.553c-0.284,0.474-0.131,1.088,0.343,1.372C20.487,8.986,20.664,9.032,20.839,9.032z"/><path fill="#00695c" d="M31.787,8c-0.553,0-1-0.447-1-1V4c0-0.553,0.447-1,1-1c0.553,0,1,0.447,1,1v3 C32.787,7.553,32.34,8,31.787,8z"/><path fill="#00695c" d="M29.228,9.121c-0.339,0.028-0.683-0.117-0.895-0.413l-1.737-2.418 c-0.322-0.449-0.22-1.073,0.229-1.396c0.449-0.323,1.074-0.219,1.396,0.229l1.737,2.418c0.322,0.449,0.22,1.073-0.229,1.396 C29.575,9.046,29.402,9.107,29.228,9.121z"/><path fill="#00695c" d="M34.626,9.032c0.34,0,0.671-0.173,0.858-0.485l1.532-2.553c0.284-0.474,0.131-1.088-0.343-1.372 c-0.474-0.285-1.088-0.13-1.372,0.343L33.77,7.517c-0.284,0.474-0.131,1.088,0.343,1.372C34.274,8.986,34.452,9.032,34.626,9.032z"/><path fill="#00897b" d="M32,43c-2.762,0-5-2.238-5-5V11c0-2.762,2.238-5,5-5s5,2.238,5,5v27C37,40.762,34.762,43,32,43z"/><path fill="#00897b" d="M14.003,31.001c-0.427,0-0.859-0.055-1.291-0.17c-2.668-0.711-4.255-3.451-3.543-6.119l4-15 c0.712-2.668,3.453-4.254,6.119-3.543c2.668,0.711,4.255,3.451,3.543,6.119l-4,15C18.234,29.524,16.213,31.001,14.003,31.001z"/><circle cx="18" cy="11" r="2" fill="#fff"/><circle cx="17" cy="11" r="1" fill="#212121"/><circle cx="32" cy="11" r="2" fill="#fff"/><circle cx="33" cy="11" r="1" fill="#212121"/><polygon fill="#bdbdbd" points="15.5,34 17,31 14,31"/><polygon fill="#bdbdbd" points="19.5,34 21,31 18,31"/><polygon fill="#bdbdbd" points="23.5,34 25,31 22,31"/><path fill="#00897b" d="M32,31H14c-2.762,0-5-2.238-5-5s2.238-5,5-5h18c2.762,0,5,2.238,5,5S34.762,31,32,31z"/><circle cx="13" cy="26" r="1" fill="#00695c"/><circle cx="17" cy="26" r="1" fill="#00695c"/><path fill="#212121" d="M34,33h-7v-2h7c0.552,0,1,0.448,1,1v0C35,32.552,34.552,33,34,33z"/><path fill="#ef5350" d="M26,31v3.857C26,36.041,27.119,37,28.5,37s2.5-0.959,2.5-2.143V31H26z"/><polygon fill="#00796b" points="27,19 27,21 32,21"/></svg>