<svg xmlns="http://www.w3.org/2000/svg" viewBox="0 0 128 128"><path fill="#444b54" d="M24 24H104V104H24z"/><path fill="#444b54" d="M24 107c-1.7 0-3-1.3-3-3V24c0-1.7 1.3-3 3-3s3 1.3 3 3v80C27 105.7 25.7 107 24 107zM104 107c-1.7 0-3-1.3-3-3V24c0-1.7 1.3-3 3-3s3 1.3 3 3v80C107 105.7 105.7 107 104 107z"/><path fill="#444b54" d="M114,21H14c-4.4,0-8,3.6-8,8v65c0,1.7,1.3,3,3,3s3-1.3,3-3v-7h12c1.7,0,3-1.3,3-3s-1.3-3-3-3H12V67h12c1.7,0,3-1.3,3-3s-1.3-3-3-3H12V47h12c1.7,0,3-1.3,3-3s-1.3-3-3-3H12V29c0-1.1,0.9-2,2-2h100c1.1,0,2,0.9,2,2v12h-12c-1.7,0-3,1.3-3,3s1.3,3,3,3h12v14h-12c-1.7,0-3,1.3-3,3s1.3,3,3,3h12v14h-12c-1.7,0-3,1.3-3,3s1.3,3,3,3h12v12c0,1.1-0.9,2-2,2H19c-1.7,0-3,1.3-3,3s1.3,3,3,3h95c4.4,0,8-3.6,8-8V29C122,24.6,118.4,21,114,21z"/><path fill="#fff" stroke="#fff" stroke-miterlimit="10" stroke-width=".3" d="M48.5 66.5v-4.8c0 0 0 0 0 0 0 0 0 0 0 0h-1.3v-1.1h3.8v1.1h-1.3l0 0v4.8H48.5zM55 60.5h1.1v6H55v-2.4c0 0 0 0 0 0h-2c0 0 0 0 0 0v2.4h-1.1v-6H53v2.4c0 0 0 0 0 0h2c0 0 0 0 0 0V60.5zM58.3 65.3C58.3 65.3 58.3 65.4 58.3 65.3l2.2 0v1.1h-3.3v-6h3.3v1.1h-2.1c0 0 0 0 0 0v1.2c0 0 0 0 0 0h2.1v1.1h-2.1c0 0 0 0 0 0V65.3zM64.8 65.3C64.8 65.3 64.8 65.4 64.8 65.3l2.2 0v1.1h-3.3v-6h3.3v1.1h-2.1c0 0 0 0 0 0v1.2c0 0 0 0 0 0h2.1v1.1h-2.1c0 0 0 0 0 0V65.3zM68.9 60.5l2.6 3.8v-3.8h1.1v6h-1.1L69 62.7v3.8h-1.1v-6L68.9 60.5zM73.6 60.5h2c1.7 0 3 1.4 3 3 0 1.6-1.3 3-3 3h-2V60.5zM75.5 65.4c1.1 0 1.9-.8 1.9-1.9 0-1.1-.7-1.9-1.8-1.9h-.8c0 0 0 0 0 0v3.6c0 0 0 0 0 0H75.5z"/></svg>