<svg xmlns="http://www.w3.org/2000/svg" viewBox="0 0 48 48"><polygon fill="#ff8a80" points="19.638,2.535 18.962,5.82 21.861,5.047"/><polygon fill="#ff8a80" points="23.489,2.138 21.989,5.138 24.989,5.138"/><polygon fill="#ff8a80" points="16.08,3.973 16.16,7.326 18.811,5.921"/><polygon fill="#ff8a80" points="12.97,6.241 14.03,9.423 16.152,7.301"/><polygon fill="#ff8a80" points="27.415,2.535 28.092,5.82 25.193,5.047"/><polygon fill="#ff8a80" points="30.974,3.973 30.894,7.326 28.243,5.921"/><polygon fill="#ff8a80" points="34.084,6.241 33.023,9.423 30.902,7.301"/><path fill="#d32f2f" d="M24,29h-1c-6.617,0-12-5.383-12-12S16.383,5,23,5h1c6.617,0,12,5.383,12,12S30.617,29,24,29z M23,15 c-1.084,0-2,0.916-2,2s0.916,2,2,2h1c1.084,0,2-0.916,2-2s-0.916-2-2-2H23z"/><path fill="#ff5252" d="M23.5,15.5c-0.828,0-1.5-0.672-1.5-1.5V9.5C22,8.672,22.672,8,23.5,8S25,8.672,25,9.5V14 C25,14.828,24.328,15.5,23.5,15.5z"/><path fill="#ff5252" d="M21.501,17c-0.456,0-0.906-0.207-1.201-0.6l-3-4c-0.497-0.663-0.362-1.604,0.3-2.101 c0.665-0.496,1.604-0.362,2.101,0.3l3,4c0.497,0.663,0.362,1.604-0.3,2.101C22.13,16.902,21.814,17,21.501,17z"/><path fill="#ff5252" d="M25.499,17c-0.313,0-0.629-0.098-0.899-0.3c-0.662-0.497-0.797-1.438-0.3-2.101l3-4 c0.498-0.662,1.438-0.796,2.101-0.3c0.662,0.497,0.797,1.438,0.3,2.101l-3,4C26.405,16.793,25.955,17,25.499,17z"/><path fill="#b71c1c" d="M12,43h-2c-0.553,0-1-0.447-1-1s0.447-1,1-1h1v-1c0-1.607,1.065-4,4-4c0.553,0,1,0.447,1,1 s-0.447,1-1,1c-1.826,0-1.992,1.536-2,2.008V42C13,42.553,12.553,43,12,43z"/><path fill="#b71c1c" d="M35,43h2c0.553,0,1-0.447,1-1s-0.447-1-1-1h-1v-1c0-1.607-1.065-4-4-4c-0.553,0-1,0.447-1,1 s0.447,1,1,1c1.826,0,1.992,1.536,2,2.008V42C34,42.553,34.447,43,35,43z"/><path fill="#d32f2f" d="M25,43h-3c-6.617,0-12-5.383-12-12s5.383-12,12-12h3c6.617,0,12,5.383,12,12S31.617,43,25,43z M22,29c-1.084,0-2,0.916-2,2s0.916,2,2,2h3c1.084,0,2-0.916,2-2s-0.916-2-2-2H22z"/><circle cx="23.5" cy="16.5" r="5.5" fill="#ff5252"/><circle cx="23.5" cy="16.5" r="3.5" fill="#fff"/><circle cx="23.5" cy="16.5" r="1.5" fill="#212121"/><path fill="#ff5252" d="M26.5,35h-6c-2.485,0-4.5-2.015-4.5-4.5v0c0-2.485,2.015-4.5,4.5-4.5h6c2.485,0,4.5,2.015,4.5,4.5v0 C31,32.985,28.985,35,26.5,35z"/><path fill="#212121" d="M26.5,33h-6c-1.381,0-2.5-1.119-2.5-2.5v0c0-1.381,1.119-2.5,2.5-2.5h6c1.381,0,2.5,1.119,2.5,2.5v0 C29,31.881,27.881,33,26.5,33z"/><polygon fill="#fff" points="21.5,30 23,28 20,28"/><polygon fill="#fff" points="23.5,31 22,33 25,33"/><polygon fill="#fff" points="25.5,30 27,28 24,28"/></svg>