<svg xmlns="http://www.w3.org/2000/svg" viewBox="0 0 48 48"><path fill="#0179a8" d="M10.232,32.395c1.529,8.05,0.873,10.019,0.042,12.464l-0.171,0.508	c-0.349,1.048,0.217,2.181,1.265,2.53c0.209,0.07,0.423,0.104,0.633,0.104c0.837,0,1.618-0.53,1.897-1.368l0.164-0.486	c0.987-2.907,1.836-5.448,0.052-14.742L10.232,32.395z"/><path fill="#0982af" d="M10.345,32.366c1.528,8.061,0.864,10.051,0.031,12.502l-0.171,0.507	c-0.325,0.976,0.202,2.032,1.179,2.358c0.195,0.066,0.394,0.096,0.59,0.096c0.78,0,1.507-0.494,1.768-1.275l0.164-0.487	c0.979-2.884,1.822-5.405,0.056-14.624L10.345,32.366z"/><path fill="#118bb7" d="M10.457,32.338c1.527,8.072,0.856,10.083,0.021,12.54l-0.171,0.506	c-0.302,0.905,0.188,1.883,1.093,2.185c0.181,0.061,0.365,0.089,0.547,0.089c0.723,0,1.397-0.458,1.638-1.182l0.165-0.488	c0.972-2.86,1.807-5.362,0.061-14.507L10.457,32.338z"/><path fill="#1894be" d="M10.57,32.309c1.526,8.082,0.847,10.114,0.01,12.578l-0.171,0.505	c-0.278,0.833,0.173,1.735,1.006,2.013c0.167,0.056,0.336,0.082,0.503,0.082c0.666,0,1.287-0.422,1.509-1.088l0.165-0.488	c0.964-2.837,1.793-5.319,0.065-14.389L10.57,32.309z"/><path fill="#209dc5" d="M10.683,32.28c1.524,8.093,0.838,10.146-0.001,12.616l-0.17,0.505	c-0.254,0.762,0.158,1.586,0.92,1.84c0.152,0.051,0.308,0.075,0.46,0.075c0.609,0,1.176-0.386,1.38-0.995l0.165-0.489	c0.956-2.814,1.779-5.276,0.069-14.272L10.683,32.28z"/><path fill="#28a6cd" d="M10.796,32.251c1.523,8.104,0.829,10.178-0.012,12.654l-0.17,0.504	c-0.23,0.691,0.143,1.437,0.834,1.668c0.138,0.046,0.279,0.068,0.417,0.068c0.552,0,1.066-0.35,1.25-0.902l0.165-0.49	c0.948-2.791,1.765-5.233,0.074-14.155L10.796,32.251z"/><path fill="#30b0d4" d="M10.909,32.222c1.522,8.114,0.821,10.209-0.023,12.692l-0.17,0.503	c-0.206,0.619,0.128,1.288,0.747,1.495c0.124,0.042,0.25,0.061,0.374,0.061c0.495,0,0.956-0.313,1.121-0.808l0.166-0.491	c0.94-2.768,1.75-5.19,0.078-14.037L10.909,32.222z"/><path fill="#38b9dc" d="M11.022,32.194c1.521,8.125,0.812,10.241-0.033,12.73l-0.17,0.502	c-0.183,0.548,0.114,1.14,0.661,1.323c0.11,0.037,0.221,0.054,0.331,0.054c0.438,0,0.846-0.277,0.992-0.715l0.166-0.491	c0.932-2.745,1.736-5.147,0.082-13.92L11.022,32.194z"/><path fill="#40c2e3" d="M11.134,32.165c1.52,8.136,0.803,10.273-0.044,12.768l-0.169,0.501	c-0.159,0.476,0.099,0.991,0.575,1.15c0.095,0.032,0.192,0.047,0.288,0.047c0.381,0,0.735-0.241,0.862-0.622l0.166-0.492	c0.925-2.721,1.722-5.104,0.087-13.802L11.134,32.165z"/><path fill="#47cbea" d="M11.247,32.136c1.518,8.146,0.795,10.304-0.055,12.806l-0.169,0.501	c-0.135,0.405,0.084,0.842,0.489,0.978c0.081,0.027,0.164,0.04,0.244,0.04c0.324,0,0.625-0.205,0.733-0.528l0.166-0.493	c0.917-2.698,1.708-5.061,0.091-13.685L11.247,32.136z"/><path fill="#4fd4f2" d="M11.36,32.107c1.517,8.157,0.786,10.336-0.066,12.843l-0.169,0.5	c-0.111,0.333,0.069,0.694,0.402,0.805c0.067,0.022,0.135,0.032,0.201,0.032c0.267,0,0.515-0.169,0.603-0.435l0.167-0.493	c0.909-2.675,1.693-5.018,0.096-13.568L11.36,32.107z"/><path fill="#57ddf9" d="M11.473,32.078c1.516,8.167,0.777,10.368-0.077,12.881l-0.168,0.499	c-0.087,0.262,0.054,0.545,0.316,0.633c0.053,0.018,0.106,0.025,0.158,0.025c0.209,0,0.404-0.133,0.474-0.342l0.167-0.494	c0.901-2.652,1.679-4.975,0.1-13.45L11.473,32.078z"/><path fill="#d31321" d="M42,0c-0.104,0-10.077,0.158-12.739,13.357l4.006,0.406C35.346,4.291,41.699,4.007,42.018,4 C43.114,3.99,44,3.099,44,2C44,0.896,43.104,0,42,0z"/><path fill="#d71b24" d="M41.981,0.081c-0.102,0-9.983,0.158-12.612,13.286l3.733,0.378c2.086-9.656,8.575-9.932,8.896-9.937 c1.021-0.016,1.847-0.84,1.847-1.864C43.845,0.916,43.01,0.081,41.981,0.081z"/><path fill="#db2428" d="M41.962,0.162c-0.101,0-9.889,0.157-12.486,13.216l3.459,0.35c2.093-9.84,8.719-10.107,9.042-10.112 c0.947-0.014,1.712-0.778,1.712-1.727C43.689,0.936,42.916,0.162,41.962,0.162z"/><path fill="#df2c2b" d="M41.943,0.244c-0.1,0-9.796,0.157-12.359,13.146l3.185,0.322c2.1-10.025,8.862-10.282,9.187-10.286 c0.872-0.012,1.577-0.717,1.577-1.591C43.534,0.956,42.822,0.244,41.943,0.244z"/><path fill="#e3352e" d="M41.925,0.325c-0.099,0-9.702,0.157-12.232,13.075l2.912,0.295 c2.107-10.21,9.005-10.457,9.333-10.461c0.798-0.01,1.443-0.656,1.442-1.455C43.379,0.976,42.728,0.325,41.925,0.325z"/><path fill="#e73d32" d="M41.906,0.406c-0.098,0-9.608,0.157-12.106,13.005l2.638,0.267 c2.114-10.394,9.149-10.632,9.478-10.636c0.723-0.008,1.308-0.594,1.307-1.319C43.223,0.996,42.634,0.406,41.906,0.406z"/><path fill="#ea4635" d="M41.887,0.487c-0.097,0-9.514,0.156-11.979,12.935l2.364,0.239 c2.121-10.579,9.292-10.807,9.624-10.81c0.648-0.007,1.173-0.533,1.173-1.182C43.068,1.016,42.539,0.487,41.887,0.487z"/><path fill="#ee4e39" d="M41.868,0.569c-0.096,0-9.42,0.156-11.853,12.864l2.091,0.212 C34.235,2.881,41.542,2.663,41.875,2.66c0.574-0.005,1.038-0.471,1.038-1.046C42.913,1.036,42.445,0.569,41.868,0.569z"/><path fill="#f2573c" d="M41.849,0.65c-0.095,0-9.326,0.156-11.726,12.794l1.817,0.184 c2.136-10.948,9.579-11.156,9.915-11.16c0.499-0.003,0.903-0.41,0.903-0.91C42.757,1.056,42.351,0.65,41.849,0.65z"/><path fill="#f65f3f" d="M41.83,0.731c-0.094,0-9.233,0.155-11.599,12.724l1.543,0.156 c2.143-11.133,9.723-11.332,10.06-11.334c0.425-0.003,0.768-0.348,0.768-0.774C42.602,1.076,42.257,0.731,41.83,0.731z"/><path fill="#fa6843" d="M41.811,0.812c-0.093,0-9.139,0.155-11.473,12.653l1.27,0.129 c2.15-11.318,9.866-11.507,10.206-11.509c0.35-0.002,0.633-0.287,0.633-0.637C42.446,1.096,42.163,0.812,41.811,0.812z"/><path fill="#fe7046" d="M41.793,0.894c-0.092,0-9.045,0.155-11.346,12.583l0.996,0.101 C33.6,2.075,41.452,1.896,41.794,1.894c0.275-0.001,0.499-0.226,0.498-0.501C42.291,1.116,42.068,0.894,41.793,0.894z"/><linearGradient id="dNAbaMPi9rB0iFEpIKl3na" x1="36.414" x2="42.033" y1="1.951" y2="7.628" gradientUnits="userSpaceOnUse"><stop offset="0" stop-color="#0179a8"/><stop offset="1" stop-color="#1fd9f7"/></linearGradient><path fill="url(#dNAbaMPi9rB0iFEpIKl3na)" d="M40.912,8.059c-0.333,0-0.659-0.166-0.849-0.47L38.152,4.53	c-0.292-0.469-0.15-1.086,0.318-1.378c0.469-0.293,1.085-0.15,1.378,0.317l1.911,3.059c0.292,0.469,0.15,1.086-0.318,1.378	C41.276,8.01,41.093,8.059,40.912,8.059z"/><linearGradient id="dNAbaMPi9rB0iFEpIKl3nb" x1="34.293" x2="36.901" y1="6.013" y2="8.42" gradientUnits="userSpaceOnUse"><stop offset="0" stop-color="#0179a8"/><stop offset="1" stop-color="#1fd9f7"/></linearGradient><path fill="url(#dNAbaMPi9rB0iFEpIKl3nb)" d="M37.202,10.236c-0.333,0-0.659-0.166-0.849-0.47l-1.549-2.509	c-0.292-0.469-0.15-1.086,0.318-1.378c0.468-0.293,1.085-0.15,1.378,0.317l1.549,2.509c0.292,0.469,0.15,1.086-0.318,1.378	C37.566,10.188,37.383,10.236,37.202,10.236z"/><linearGradient id="dNAbaMPi9rB0iFEpIKl3nc" x1="31.336" x2="33.358" y1="8.457" y2="10.534" gradientUnits="userSpaceOnUse"><stop offset="0" stop-color="#0179a8"/><stop offset="1" stop-color="#1fd9f7"/></linearGradient><path fill="url(#dNAbaMPi9rB0iFEpIKl3nc)" d="M33.998,12.442c-0.333,0-0.659-0.166-0.849-0.47l-0.898-1.428	c-0.292-0.469-0.15-1.086,0.318-1.378c0.469-0.294,1.085-0.15,1.378,0.317l0.898,1.428c0.292,0.469,0.15,1.086-0.318,1.378	C34.362,12.394,34.179,12.442,33.998,12.442z"/><linearGradient id="dNAbaMPi9rB0iFEpIKl3nd" x1="12.327" x2="12.87" y1="33.068" y2="36.242" gradientUnits="userSpaceOnUse"><stop offset=".055" stop-color="#171714" stop-opacity=".7"/><stop offset="1" stop-color="#171714" stop-opacity="0"/></linearGradient><path fill="url(#dNAbaMPi9rB0iFEpIKl3nd)" d="M15.035,37.681c-0.144-1.684-0.43-3.717-0.922-6.276l-3.882,0.99	c0.411,2.161,0.66,3.874,0.794,5.286H15.035z"/><linearGradient id="dNAbaMPi9rB0iFEpIKl3ne" x1="16.629" x2="22.641" y1="27.386" y2="27.386" gradientUnits="userSpaceOnUse"><stop offset="0" stop-color="#1fd9f7"/><stop offset="1" stop-color="#0179a8"/></linearGradient><path fill="url(#dNAbaMPi9rB0iFEpIKl3ne)" d="M21.641,30.595c-0.272,0-0.543-0.11-0.741-0.328l-4.012-4.419	c-0.372-0.408-0.341-1.041,0.068-1.412c0.411-0.37,1.043-0.341,1.413,0.068l4.012,4.419c0.372,0.408,0.341,1.041-0.068,1.412	C22.121,30.509,21.881,30.595,21.641,30.595z"/><linearGradient id="dNAbaMPi9rB0iFEpIKl3nf" x1="9.412" x2="13.388" y1="35.873" y2="35.873" gradientUnits="userSpaceOnUse"><stop offset="0" stop-color="#ff7448"/><stop offset=".91" stop-color="#e51e25"/></linearGradient><path fill="url(#dNAbaMPi9rB0iFEpIKl3nf)" d="M12.387,37.541c-0.201,0-0.404-0.061-0.58-0.187l-1.977-1.337	c-0.45-0.32-0.554-0.945-0.233-1.395c0.321-0.45,0.946-0.554,1.395-0.232l1.977,1.337c0.45,0.32,0.554,0.945,0.233,1.395	C13.007,37.396,12.699,37.541,12.387,37.541z"/><linearGradient id="dNAbaMPi9rB0iFEpIKl3ng" x1="6.671" x2="10.753" y1="33.99" y2="33.99" gradientUnits="userSpaceOnUse"><stop offset="0" stop-color="#0179a8"/><stop offset="1" stop-color="#1fd9f7"/></linearGradient><path fill="url(#dNAbaMPi9rB0iFEpIKl3ng)" d="M9.751,35.733c-0.201,0-0.404-0.061-0.58-0.187L7.09,34.061	c-0.45-0.32-0.554-0.945-0.233-1.395c0.321-0.45,0.944-0.554,1.395-0.232l2.082,1.486c0.45,0.32,0.554,0.945,0.233,1.395	C10.371,35.588,10.063,35.733,9.751,35.733z"/><linearGradient id="dNAbaMPi9rB0iFEpIKl3nh" x1="13.416" x2="17.763" y1="29.745" y2="29.745" gradientUnits="userSpaceOnUse"><stop offset="0" stop-color="#1fd9f7"/><stop offset="1" stop-color="#0179a8"/></linearGradient><path fill="url(#dNAbaMPi9rB0iFEpIKl3nh)" d="M16.763,31.833c-0.244,0-0.488-0.088-0.68-0.267l-2.347-2.177	c-0.405-0.376-0.429-1.009-0.053-1.413c0.376-0.406,1.008-0.43,1.413-0.054l2.347,2.177c0.405,0.376,0.429,1.009,0.053,1.413	C17.299,31.726,17.031,31.833,16.763,31.833z"/><linearGradient id="dNAbaMPi9rB0iFEpIKl3ni" x1="7.177" x2="13.094" y1="39.201" y2="39.201" gradientUnits="userSpaceOnUse"><stop offset="0" stop-color="#ff7448"/><stop offset=".91" stop-color="#e51e25"/></linearGradient><path fill="url(#dNAbaMPi9rB0iFEpIKl3ni)" d="M12.093,41.001c-0.126,0-0.254-0.023-0.377-0.074L7.8,39.328	c-0.511-0.209-0.757-0.792-0.548-1.304c0.208-0.512,0.793-0.758,1.304-0.548l3.916,1.599c0.511,0.209,0.757,0.792,0.548,1.304	C12.861,40.767,12.487,41.001,12.093,41.001z"/><linearGradient id="dNAbaMPi9rB0iFEpIKl3nj" x1="3.21" x2="8.224" y1="37.397" y2="37.397" gradientUnits="userSpaceOnUse"><stop offset="0" stop-color="#0179a8"/><stop offset="1" stop-color="#1fd9f7"/></linearGradient><path fill="url(#dNAbaMPi9rB0iFEpIKl3nj)" d="M7.223,39.013c-0.126,0-0.254-0.023-0.377-0.074l-3.014-1.23	c-0.511-0.209-0.757-0.792-0.548-1.304c0.208-0.512,0.793-0.758,1.304-0.548l3.014,1.23c0.511,0.209,0.757,0.792,0.548,1.304	C7.991,38.778,7.618,39.013,7.223,39.013z"/><linearGradient id="dNAbaMPi9rB0iFEpIKl3nk" x1="6.149" x2="12.587" y1="43.146" y2="43.146" gradientUnits="userSpaceOnUse"><stop offset="0" stop-color="#ff7448"/><stop offset=".91" stop-color="#e51e25"/></linearGradient><path fill="url(#dNAbaMPi9rB0iFEpIKl3nk)" d="M11.586,45.149c-0.138,0-0.278-0.028-0.412-0.089l-4.437-2.007	c-0.503-0.228-0.727-0.82-0.499-1.323s0.819-0.727,1.323-0.499l4.437,2.007c0.503,0.228,0.727,0.82,0.499,1.323	C12.331,44.931,11.967,45.149,11.586,45.149z"/><linearGradient id="dNAbaMPi9rB0iFEpIKl3nl" x1="1.654" x2="7.069" y1="40.882" y2="40.882" gradientUnits="userSpaceOnUse"><stop offset="0" stop-color="#0179a8"/><stop offset="1" stop-color="#1fd9f7"/></linearGradient><path fill="url(#dNAbaMPi9rB0iFEpIKl3nl)" d="M6.068,42.654c-0.138,0-0.278-0.028-0.412-0.089l-3.415-1.544	c-0.503-0.228-0.727-0.82-0.499-1.323s0.82-0.727,1.323-0.499l3.415,1.544c0.503,0.228,0.727,0.82,0.499,1.323	C6.813,42.436,6.449,42.654,6.068,42.654z"/><path fill="#d31321" d="M29.16,13.924c-0.046,0.256-0.096,0.507-0.137,0.773c-1.787,11.611-7.536,13.356-14.306,14.324	C7.68,30.025,2.502,32.17,0.103,39.367c-0.349,1.048,0.217,2.181,1.265,2.53c0.209,0.07,0.423,0.104,0.633,0.104	c0.837,0,1.618-0.53,1.897-1.368c1.577-4.731,4.45-6.662,11.385-7.653c7.408-1.058,15.495-3.384,17.694-17.676	c0.052-0.336,0.109-0.66,0.17-0.976L29.16,13.924z"/><path fill="#d71b24" d="M29.268,13.935c-0.044,0.241-0.09,0.477-0.129,0.727C27.339,26.364,21.518,28.128,14.718,29.1	c-7.004,1-12.127,3.122-14.505,10.255c-0.325,0.976,0.202,2.032,1.179,2.358c0.195,0.066,0.394,0.096,0.59,0.096	c0.78,0,1.507-0.494,1.768-1.275c1.616-4.849,4.603-6.76,11.495-7.745c7.388-1.055,15.394-3.362,17.578-17.562	c0.049-0.315,0.102-0.62,0.16-0.917L29.268,13.935z"/><path fill="#db2428" d="M29.376,13.946c-0.041,0.226-0.084,0.447-0.121,0.682c-1.815,11.793-7.707,13.576-14.537,14.553	C7.747,30.176,2.68,32.275,0.324,39.343c-0.302,0.905,0.188,1.883,1.093,2.185c0.181,0.061,0.365,0.089,0.547,0.089	c0.723,0,1.397-0.458,1.638-1.182c1.655-4.967,4.757-6.858,11.606-7.837c7.368-1.052,15.293-3.34,17.463-17.447	c0.045-0.295,0.096-0.58,0.149-0.858L29.376,13.946z"/><path fill="#df2c2b" d="M29.484,13.957c-0.038,0.212-0.079,0.418-0.112,0.636c-1.829,11.884-7.792,13.686-14.653,14.667	C7.781,30.251,2.769,32.327,0.434,39.331c-0.278,0.833,0.173,1.735,1.006,2.013c0.167,0.056,0.336,0.082,0.503,0.082	c0.666,0,1.287-0.422,1.509-1.088c1.695-5.085,4.911-6.956,11.716-7.929c7.348-1.049,15.191-3.318,17.347-17.333	c0.042-0.275,0.09-0.539,0.139-0.799L29.484,13.957z"/><path fill="#e3352e" d="M29.591,13.967c-0.035,0.197-0.073,0.388-0.104,0.591c-1.843,11.975-7.878,13.796-14.768,14.781	c-6.904,0.986-11.861,3.04-14.174,9.979c-0.254,0.762,0.158,1.586,0.92,1.84c0.152,0.051,0.308,0.075,0.46,0.075	c0.609,0,1.176-0.386,1.38-0.995c1.734-5.203,5.064-7.055,11.826-8.021C22.459,31.173,30.22,28.923,32.362,15	c0.039-0.254,0.083-0.499,0.129-0.739L29.591,13.967z"/><path fill="#e73d32" d="M29.699,13.978c-0.032,0.182-0.068,0.358-0.096,0.546C27.746,26.59,21.64,28.431,14.719,29.42	c-6.871,0.981-11.772,3.012-14.064,9.888c-0.23,0.691,0.143,1.437,0.834,1.668c0.138,0.046,0.279,0.068,0.417,0.068	c0.552,0,1.066-0.35,1.25-0.902c1.773-5.32,5.218-7.153,11.936-8.112c7.309-1.044,14.989-3.274,17.116-17.104	c0.036-0.234,0.077-0.458,0.118-0.68L29.699,13.978z"/><path fill="#ea4635" d="M29.807,13.989c-0.029,0.167-0.062,0.328-0.088,0.5c-1.871,12.157-8.048,14.016-14.999,15.01	c-6.838,0.977-11.683,2.985-13.954,9.796c-0.206,0.619,0.128,1.288,0.747,1.495c0.124,0.042,0.25,0.061,0.374,0.061	c0.495,0,0.956-0.313,1.121-0.808c1.813-5.438,5.372-7.251,12.046-8.204c7.289-1.041,14.887-3.252,17.001-16.99	c0.033-0.213,0.07-0.418,0.108-0.621L29.807,13.989z"/><path fill="#ee4e39" d="M29.915,14c-0.027,0.152-0.056,0.299-0.08,0.455C27.95,26.703,21.701,28.582,14.72,29.579	c-6.804,0.972-11.595,2.957-13.844,9.704c-0.183,0.548,0.114,1.14,0.661,1.323c0.11,0.037,0.221,0.054,0.331,0.054	c0.438,0,0.846-0.277,0.992-0.715c1.852-5.556,5.525-7.349,12.156-8.296c7.269-1.038,14.786-3.23,16.885-16.876	c0.03-0.193,0.064-0.377,0.098-0.562L29.915,14z"/><path fill="#f2573c" d="M30.023,14.011c-0.024,0.137-0.051,0.269-0.072,0.41c-1.898,12.339-8.219,14.236-15.23,15.238	c-6.771,0.967-11.506,2.93-13.734,9.612c-0.159,0.476,0.099,0.991,0.575,1.15c0.095,0.032,0.192,0.047,0.288,0.047	c0.381,0,0.735-0.241,0.862-0.622c1.891-5.674,5.679-7.447,12.266-8.388c7.249-1.036,14.685-3.208,16.77-16.762	c0.027-0.173,0.058-0.337,0.088-0.503L30.023,14.011z"/><path fill="#f65f3f" d="M30.131,14.022c-0.021,0.122-0.045,0.239-0.064,0.364c-1.912,12.43-8.304,14.346-15.346,15.353	c-6.738,0.963-11.418,2.903-13.624,9.521c-0.135,0.405,0.084,0.842,0.489,0.978c0.081,0.027,0.164,0.04,0.244,0.04	c0.324,0,0.625-0.205,0.733-0.528c1.931-5.792,5.833-7.545,12.376-8.479c7.23-1.033,14.583-3.186,16.654-16.647	c0.023-0.152,0.051-0.296,0.077-0.443L30.131,14.022z"/><path fill="#fa6843" d="M30.239,14.033c-0.018,0.108-0.039,0.209-0.056,0.319c-1.926,12.52-8.39,14.456-15.461,15.467	c-6.705,0.958-11.329,2.875-13.513,9.429c-0.111,0.333,0.069,0.694,0.402,0.805c0.067,0.022,0.135,0.032,0.201,0.032	c0.267,0,0.515-0.169,0.603-0.435c1.97-5.91,5.986-7.643,12.487-8.571c7.21-1.03,14.482-3.164,16.539-16.533	c0.02-0.132,0.045-0.256,0.067-0.384L30.239,14.033z"/><path fill="#fe7046" d="M30.347,14.044c-0.015,0.093-0.034,0.18-0.048,0.274c-1.94,12.611-8.475,14.566-15.577,15.581	c-6.671,0.953-11.24,2.848-13.403,9.337c-0.087,0.262,0.054,0.545,0.316,0.633c0.053,0.018,0.106,0.025,0.158,0.025	c0.209,0,0.404-0.133,0.474-0.342c2.009-6.027,6.14-7.741,12.597-8.663c7.19-1.027,14.381-3.142,16.423-16.419	c0.017-0.112,0.039-0.215,0.057-0.325L30.347,14.044z"/><linearGradient id="dNAbaMPi9rB0iFEpIKl3nm" x1="40.516" x2="45" y1="10.013" y2="10.013" gradientUnits="userSpaceOnUse"><stop offset="0" stop-color="#ff7448"/><stop offset=".91" stop-color="#e51e25"/></linearGradient><path fill="url(#dNAbaMPi9rB0iFEpIKl3nm)" d="M44.001,13c-0.333,0-0.659-0.166-0.849-0.47l-2.483-3.974	c-0.292-0.469-0.15-1.086,0.318-1.378c0.468-0.294,1.085-0.151,1.378,0.317l2.483,3.974c0.292,0.469,0.15,1.086-0.318,1.378	C44.365,12.951,44.182,13,44.001,13z"/><linearGradient id="dNAbaMPi9rB0iFEpIKl3nn" x1="36.806" x2="41.29" y1="12.191" y2="12.191" gradientUnits="userSpaceOnUse"><stop offset="0" stop-color="#ff7448"/><stop offset=".91" stop-color="#e51e25"/></linearGradient><path fill="url(#dNAbaMPi9rB0iFEpIKl3nn)" d="M40.291,15.178c-0.333,0-0.659-0.166-0.849-0.47l-2.484-3.974	c-0.292-0.469-0.15-1.086,0.318-1.378c0.47-0.294,1.085-0.151,1.378,0.317l2.484,3.974c0.292,0.469,0.15,1.086-0.318,1.378	C40.655,15.129,40.472,15.178,40.291,15.178z"/><linearGradient id="dNAbaMPi9rB0iFEpIKl3no" x1="30.983" x2="30.016" y1="14.078" y2="19.462" gradientUnits="userSpaceOnUse"><stop offset=".055" stop-color="#171714" stop-opacity=".7"/><stop offset="1" stop-color="#171714" stop-opacity="0"/></linearGradient><path fill="url(#dNAbaMPi9rB0iFEpIKl3no)" d="M31.617,20.936c0.569-1.636,1.031-3.498,1.36-5.632c0.052-0.336,0.109-0.66,0.17-0.976	l-3.986-0.404c-0.046,0.256-0.096,0.507-0.137,0.773c-0.324,2.106-0.78,3.883-1.347,5.394L31.617,20.936z"/><linearGradient id="dNAbaMPi9rB0iFEpIKl3np" x1="33.475" x2="37.443" y1="13.783" y2="13.783" gradientUnits="userSpaceOnUse"><stop offset="0" stop-color="#ff7448"/><stop offset=".91" stop-color="#e51e25"/></linearGradient><path fill="url(#dNAbaMPi9rB0iFEpIKl3np)" d="M36.444,16.356c-0.333,0-0.659-0.166-0.849-0.47l-1.967-3.146	c-0.292-0.469-0.15-1.085,0.318-1.378c0.47-0.294,1.085-0.151,1.378,0.317l1.967,3.146c0.292,0.469,0.15,1.085-0.318,1.378	C36.808,16.308,36.625,16.356,36.444,16.356z"/><linearGradient id="dNAbaMPi9rB0iFEpIKl3nq" x1="25.238" x2="29.103" y1="16.038" y2="16.038" gradientUnits="userSpaceOnUse"><stop offset="0" stop-color="#1fd9f7"/><stop offset="1" stop-color="#0179a8"/></linearGradient><path fill="url(#dNAbaMPi9rB0iFEpIKl3nq)" d="M29.253,18.152c-0.286,0-0.569-0.122-0.767-0.358l-1.865-2.228	c-0.354-0.423-0.299-1.054,0.125-1.408c0.424-0.355,1.054-0.299,1.409,0.125l1.865,2.228c0.354,0.423,0.299,1.054-0.125,1.408	C29.707,18.076,29.479,18.152,29.253,18.152z"/><path fill="#0179a8" d="M47.045,9.26c-0.947-0.567-2.16-0.285-2.729,0.661c-0.027,0.038-2.753,3.809-12.988,2.106 c-7.741-1.291-14.136,0.203-18.009,4.204c-2.252,2.326-4.602,6.587-3.506,13.834c0.777-0.228,2.147-0.585,3.93-0.89 c-0.614-4.401,0.19-7.827,2.45-10.162c2.89-2.984,8.165-4.092,14.479-3.041c12.965,2.161,16.665-3.312,17.043-3.943 C48.283,11.082,47.992,9.828,47.045,9.26z"/><path fill="#0982af" d="M47.522,9.94c-0.137-0.227-0.324-0.443-0.576-0.595c-0.245-0.147-0.514-0.211-0.769-0.234 c-0.693-0.061-1.432,0.276-1.92,0.979c-0.198,0.143-3.027,3.693-12.978,2.037c-7.686-1.282-14.052,0.201-17.889,4.164 c-2.311,2.387-4.534,6.666-3.463,13.74c0.772-0.222,2.049-0.548,3.668-0.831c-0.631-4.464,0.181-7.948,2.473-10.316 c2.884-2.978,8.109-4.106,14.365-3.11c0.969,0.155,1.891,0.273,2.768,0.361c10.466,1.025,13.755-3.406,14.233-4.076 C47.924,11.373,47.882,10.536,47.522,9.94z"/><path fill="#118bb7" d="M47.383,10.033c-0.12-0.224-0.285-0.453-0.535-0.604c-0.244-0.147-0.516-0.185-0.761-0.194 c-0.626-0.023-1.334,0.318-1.889,1.023c-0.369,0.249-3.301,3.577-12.969,1.969c-7.631-1.272-13.968,0.2-17.768,4.125 c-2.371,2.448-4.473,6.743-3.422,13.649c0.755-0.214,1.925-0.51,3.405-0.775c-0.649-4.528,0.174-8.069,2.499-10.471 c2.878-2.971,8.054-4.121,14.251-3.179c0.956,0.146,1.871,0.263,2.749,0.357c10.214,1.055,13.598-3.089,14.211-3.844 C47.709,11.406,47.68,10.589,47.383,10.033z"/><path fill="#1894be" d="M47.244,10.126c-0.102-0.222-0.246-0.463-0.495-0.613c-0.243-0.146-0.516-0.158-0.752-0.154 c-0.558,0.01-1.235,0.359-1.858,1.067c-0.539,0.354-3.574,3.461-12.959,1.9c-7.575-1.263-13.885,0.198-17.648,4.085 c-2.43,2.51-4.412,6.821-3.382,13.559c0.729-0.204,1.796-0.472,3.138-0.718c-0.668-4.592,0.17-8.19,2.53-10.628 c2.871-2.965,7.998-4.135,14.137-3.247c0.943,0.137,1.852,0.255,2.73,0.353c9.96,1.105,13.437-2.775,14.189-3.611 C47.488,11.436,47.48,10.64,47.244,10.126z"/><path fill="#209dc5" d="M47.105,10.22c-0.086-0.222-0.207-0.472-0.454-0.621c-0.242-0.146-0.522-0.176-0.744-0.114 c-0.486-0.059-1.137,0.401-1.827,1.111c-0.71,0.459-3.848,3.346-12.949,1.831c-7.52-1.254-13.801,0.196-17.528,4.045 c-2.489,2.571-4.351,6.897-3.342,13.468c0.695-0.191,1.667-0.431,2.869-0.656c-0.688-4.658,0.168-8.315,2.563-10.788 c2.865-2.959,7.943-4.15,14.023-3.316c0.93,0.129,1.833,0.246,2.711,0.349c9.707,1.138,13.273-2.464,14.166-3.379 C47.264,11.463,47.284,10.686,47.105,10.22z"/><path fill="#28a6cd" d="M46.966,10.313c-0.021-0.234-0.168-0.482-0.413-0.63c-0.241-0.145-0.525-0.16-0.736-0.074 c-0.418-0.048-1.039,0.442-1.796,1.155c-0.881,0.564-4.122,3.23-12.94,1.762c-7.465-1.244-13.717,0.194-17.407,4.006 c-2.548,2.631-4.291,6.973-3.302,13.378c0.648-0.176,1.52-0.386,2.572-0.589c0.004-0.019,0.019-0.04,0.018-0.057 c-0.693-4.698,0.184-8.396,2.606-10.897c2.859-2.952,7.887-4.164,13.909-3.385c0.917,0.12,1.814,0.236,2.692,0.344 c9.455,1.17,13.105-2.156,14.144-3.147C47.038,11.487,47.177,10.693,46.966,10.313z"/><path fill="#30b0d4" d="M46.827,10.407c0.006-0.234-0.129-0.491-0.373-0.639c-0.24-0.145-0.528-0.145-0.727-0.034 c-0.35-0.037-0.94,0.484-1.765,1.199c-1.052,0.669-4.395,3.114-12.93,1.693c-7.409-1.235-13.634,0.192-17.287,3.966 c-2.606,2.691-4.231,7.048-3.262,13.287c0.572-0.153,1.31-0.329,2.173-0.502c0.074-0.117,0.125-0.228,0.116-0.322 c-0.645-4.647,0.255-8.323,2.671-10.819c2.852-2.946,7.832-4.179,13.796-3.453c0.904,0.111,1.795,0.226,2.672,0.34 c9.202,1.2,12.935-1.851,14.122-2.914C46.811,11.511,46.995,10.736,46.827,10.407z"/><path fill="#38b9dc" d="M46.687,10.5c0.034-0.234-0.09-0.501-0.332-0.648c-0.238-0.144-0.53-0.129-0.719,0.006 c-0.282-0.026-0.842,0.525-1.734,1.243c-1.223,0.775-4.669,2.999-12.92,1.624c-7.354-1.226-13.55,0.191-17.167,3.926 c-2.664,2.751-4.172,7.122-3.222,13.197c0.494-0.13,1.101-0.275,1.798-0.42c0.117-0.211,0.206-0.411,0.19-0.582 c-0.598-4.595,0.326-8.251,2.736-10.74c2.846-2.939,7.776-4.193,13.682-3.522c0.891,0.102,1.775,0.216,2.653,0.336 c8.95,1.228,12.764-1.548,14.099-2.682C46.583,11.533,46.813,10.778,46.687,10.5z"/><path fill="#40c2e3" d="M46.548,10.594c0.06-0.234-0.051-0.51-0.291-0.656c-0.237-0.144-0.533-0.114-0.711,0.046 c-0.215-0.015-0.744,0.567-1.703,1.287c-1.394,0.88-4.942,2.883-12.911,1.555c-7.299-1.216-13.466,0.189-17.046,3.887 c-2.722,2.811-4.114,7.197-3.182,13.109c0.428-0.111,0.928-0.232,1.5-0.354c0.111-0.294,0.21-0.58,0.187-0.829 c-0.551-4.544,0.397-8.179,2.801-10.661c2.84-2.933,7.721-4.208,13.568-3.591c0.878,0.093,1.756,0.206,2.634,0.332 c8.698,1.254,12.591-1.248,14.077-2.45C46.355,11.554,46.631,10.821,46.548,10.594z"/><path fill="#47cbea" d="M46.158,10.022c-0.236-0.143-0.536-0.098-0.703,0.086c-0.147-0.004-0.646,0.608-1.671,1.331 c-1.565,0.985-5.216,2.767-12.901,1.486c-7.243-1.207-13.383,0.187-16.926,3.847c-2.779,2.87-4.057,7.251-3.143,13.002 c0.373-0.095,0.796-0.196,1.272-0.3c0.068-0.37,0.145-0.715,0.115-1.044c-0.503-4.492,0.468-8.106,2.866-10.583 c2.833-2.927,7.665-4.222,13.454-3.66c0.865,0.085,1.737,0.193,2.615,0.328c8.449,1.264,12.417-0.95,14.055-2.217 c0.935-0.724,1.259-1.434,1.218-1.611C46.497,10.452,46.397,10.167,46.158,10.022z"/><path fill="#4fd4f2" d="M46.06,10.107c-0.235-0.143-0.539-0.083-0.694,0.126c-0.079,0.006-0.547,0.65-1.64,1.375 c-1.736,1.09-5.49,2.652-12.892,1.417c-7.188-1.198-13.299,0.185-16.805,3.807c-2.833,2.926-3.973,7.328-3.082,12.909 c0.326-0.082,0.685-0.167,1.084-0.254c0-0.44,0.019-0.856-0.019-1.265c-0.456-4.441,0.539-8.034,2.931-10.504 c2.827-2.92,7.61-4.237,13.34-3.729c0.852,0.076,1.718,0.184,2.596,0.324c8.197,1.294,12.242-0.654,14.032-1.985 c0.987-0.734,1.357-1.421,1.359-1.547C46.385,10.545,46.297,10.251,46.06,10.107z"/><path fill="#57ddf9" d="M45.961,10.191c-0.234-0.143-0.542-0.067-0.686,0.166c-0.029,0.046-3.04,4.678-14.491,2.767 c-7.133-1.188-13.215,0.184-16.685,3.768c-2.89,2.984-3.919,7.399-3.044,12.821c0.297-0.074,0.62-0.149,0.975-0.226 c-0.803-5.068,0.138-9.163,2.787-11.899c3.238-3.345,8.997-4.612,15.803-3.478c12.194,2.032,15.382-3.02,15.511-3.236 C46.272,10.638,46.196,10.335,45.961,10.191z"/><linearGradient id="dNAbaMPi9rB0iFEpIKl3nr" x1="16.344" x2="21.098" y1="18.859" y2="18.859" gradientUnits="userSpaceOnUse"><stop offset=".09" stop-color="#e51e25"/><stop offset="1" stop-color="#ff7448"/></linearGradient><path fill="url(#dNAbaMPi9rB0iFEpIKl3nr)" d="M20.098,21.696c-0.304,0-0.605-0.139-0.801-0.4l-2.754-3.676	c-0.331-0.442-0.241-1.068,0.201-1.4c0.443-0.328,1.069-0.239,1.4,0.201l2.754,3.676c0.331,0.442,0.241,1.068-0.201,1.4	C20.517,21.631,20.307,21.696,20.098,21.696z"/><linearGradient id="dNAbaMPi9rB0iFEpIKl3ns" x1="19.97" x2="25.338" y1="24.095" y2="24.095" gradientUnits="userSpaceOnUse"><stop offset="0" stop-color="#1fd9f7"/><stop offset="1" stop-color="#0179a8"/></linearGradient><path fill="url(#dNAbaMPi9rB0iFEpIKl3ns)" d="M24.339,27.328c-0.304,0-0.605-0.139-0.801-0.4l-3.368-4.469	c-0.331-0.442-0.241-1.068,0.201-1.4c0.443-0.328,1.069-0.239,1.4,0.201l3.368,4.469c0.331,0.442,0.241,1.068-0.201,1.4	C24.758,27.263,24.547,27.328,24.339,27.328z"/><linearGradient id="dNAbaMPi9rB0iFEpIKl3nt" x1="20.987" x2="25.15" y1="16.373" y2="16.373" gradientUnits="userSpaceOnUse"><stop offset=".09" stop-color="#e51e25"/><stop offset="1" stop-color="#ff7448"/></linearGradient><path fill="url(#dNAbaMPi9rB0iFEpIKl3nt)" d="M24.151,18.817c-0.305,0-0.605-0.139-0.801-0.4l-2.163-2.887	c-0.331-0.442-0.241-1.068,0.201-1.4c0.443-0.33,1.07-0.24,1.4,0.201l2.163,2.887c0.331,0.442,0.241,1.068-0.201,1.4	C24.57,18.751,24.359,18.817,24.151,18.817z"/><linearGradient id="dNAbaMPi9rB0iFEpIKl3nu" x1="24.289" x2="27.929" y1="17.761" y2="23.068" gradientUnits="userSpaceOnUse"><stop offset="0" stop-color="#1fd9f7"/><stop offset="1" stop-color="#0179a8"/></linearGradient><path fill="url(#dNAbaMPi9rB0iFEpIKl3nu)" d="M27.645,23.48c-0.304,0-0.605-0.139-0.801-0.4l-2.81-3.75	c-0.331-0.442-0.241-1.068,0.201-1.399c0.442-0.33,1.069-0.24,1.4,0.2l2.81,3.75c0.331,0.442,0.241,1.068-0.201,1.399	C28.064,23.414,27.854,23.48,27.645,23.48z"/><linearGradient id="dNAbaMPi9rB0iFEpIKl3nv" x1="12.866" x2="17.652" y1="22.58" y2="22.58" gradientUnits="userSpaceOnUse"><stop offset=".09" stop-color="#e51e25"/><stop offset="1" stop-color="#ff7448"/></linearGradient><path fill="url(#dNAbaMPi9rB0iFEpIKl3nv)" d="M16.653,25.1c-0.272,0-0.543-0.11-0.741-0.328l-2.786-3.041	c-0.372-0.408-0.341-1.041,0.068-1.412c0.411-0.371,1.042-0.34,1.413,0.068l2.786,3.041c0.372,0.408,0.341,1.041-0.068,1.412	C17.133,25.014,16.892,25.1,16.653,25.1z"/><linearGradient id="dNAbaMPi9rB0iFEpIKl3nw" x1="11.837" x2="14.845" y1="27.651" y2="27.651" gradientUnits="userSpaceOnUse"><stop offset=".09" stop-color="#e51e25"/><stop offset="1" stop-color="#ff7448"/></linearGradient><path fill="url(#dNAbaMPi9rB0iFEpIKl3nw)" d="M13.845,29.126c-0.244,0-0.487-0.088-0.68-0.267l-1.008-0.95	c-0.405-0.376-0.429-1.009-0.053-1.413c0.376-0.406,1.008-0.429,1.414-0.054l1.008,0.95c0.405,0.376,0.429,1.009,0.053,1.413	C14.381,29.019,14.113,29.126,13.845,29.126z"/></svg>