<svg xmlns="http://www.w3.org/2000/svg" viewBox="0 0 48 48"><path fill="#8e24aa" d="M27,43h-2c-0.553,0-1-0.447-1-1s0.447-1,1-1h1v-3c0-0.553,0.447-1,1-1s1,0.447,1,1v4 C28,42.553,27.553,43,27,43z"/><path fill="#8e24aa" d="M31.001,13.5c-0.55,0-1.08-0.304-1.343-0.829c-0.37-0.741-0.07-1.642,0.671-2.013l4-2 c0.743-0.369,1.643-0.07,2.013,0.671s0.07,1.642-0.671,2.013l-4,2C31.455,13.449,31.227,13.5,31.001,13.5z"/><path fill="#8e24aa" d="M36.5,18h-5c-0.828,0-1.5-0.672-1.5-1.5s0.672-1.5,1.5-1.5h5c0.828,0,1.5,0.672,1.5,1.5 S37.328,18,36.5,18z"/><path fill="#8e24aa" d="M35.5,25c-0.186,0-0.374-0.034-0.557-0.107l-5-2c-0.77-0.308-1.144-1.181-0.836-1.949 c0.308-0.77,1.183-1.142,1.949-0.836l5,2c0.77,0.308,1.144,1.181,0.836,1.949C36.658,24.644,36.095,25,35.5,25z"/><path fill="#8e24aa" d="M20,43h-2c-0.553,0-1-0.447-1-1s0.447-1,1-1h1v-3c0-0.553,0.447-1,1-1s1,0.447,1,1v4 C21,42.553,20.553,43,20,43z"/><path fill="#e040fb" d="M16,22c2.762,0,5-2.238,5-5c0-1.233,0.767-2,2-2s2,0.767,2,2c0,1.919-1.86,3.543-4.896,6.032 c-3.52,2.889-8.221,6.334-8.985,9.968h12.729c0.747-0.695,0.917-1.43,1.908-2.243C29.566,27.631,35,23.747,35,17 c0-6.729-5.271-12-12-12s-12,5.271-12,12C11,19.762,13.238,22,16,22z"/><path fill="#e040fb" d="M31,39H16c-2.762,0-5-2.238-5-5s2.238-5,5-5h15c2.762,0,5,2.238,5,5S33.762,39,31,39z"/><circle cx="14" cy="18" r="1" fill="#8e24aa"/><circle cx="18" cy="18" r="1" fill="#8e24aa"/><circle cx="20" cy="10" r="2" fill="#fff"/><circle cx="19" cy="10" r="1" fill="#212121"/><circle cx="26" cy="10" r="2" fill="#fff"/><circle cx="25" cy="10" r="1" fill="#212121"/><path fill="#212121" d="M32.121,34.916l-0.058,0.023c-3.616,1.422-7.577,1.415-11.188-0.021l0,0 C20.349,34.709,20,34.166,20,33.557v-0.108c0-0.8,0.597-1.449,1.332-1.449h10.335C32.403,32,33,32.649,33,33.449v0.105 C33,34.164,32.648,34.708,32.121,34.916z"/><path fill="#fafafa" d="M25,34L25,34c-0.552,0-1-0.448-1-1v-1h2v1C26,33.552,25.552,34,25,34z"/><path fill="#fafafa" d="M28,34L28,34c-0.552,0-1-0.448-1-1v-1h2v1C29,33.552,28.552,34,28,34z"/><polygon fill="#ab47bc" points="30.181,27 27.851,29 23,29"/></svg>