<svg xmlns="http://www.w3.org/2000/svg" viewBox="0 0 48 48"><path fill="#9575cd" d="M34.971,22l0.003-0.984c0-1.168,0.484-2.277,1.328-3.043c0.407-0.37,1.04-0.342,1.412,0.068 c0.371,0.409,0.341,1.041-0.068,1.412c-0.492,0.447-0.623,0.996-0.657,1.347c0.799-0.792,1.875-1.24,2.975-1.209 c0.552,0.015,0.988,0.473,0.975,1.025c-0.014,0.543-0.459,0.975-1,0.975c-0.008,0-0.017,0-0.025,0 c-0.636-0.021-1.106,0.267-1.379,0.496c0.85,0.173,1.627,0.603,2.207,1.242c0.371,0.409,0.341,1.041-0.068,1.412 C40.481,24.914,40.24,25,40,25c-0.271,0-0.543-0.11-0.74-0.328C38.709,24.065,37.984,24,37.695,24h-1.721h-4v-2H34.971z"/><path fill="#9575cd" d="M10.003,22L10,21.016c0-1.168-0.484-2.277-1.328-3.043c-0.407-0.37-1.04-0.342-1.412,0.068 c-0.371,0.409-0.341,1.041,0.068,1.412C7.82,19.9,7.951,20.449,7.985,20.8c-0.799-0.792-1.875-1.24-2.975-1.209 c-0.552,0.015-0.988,0.473-0.975,1.025c0.014,0.543,0.459,0.975,1,0.975c0.008,0,0.017,0,0.025,0 c0.636-0.021,1.106,0.267,1.379,0.496c-0.85,0.173-1.627,0.603-2.207,1.242c-0.371,0.409-0.341,1.041,0.068,1.412 C4.493,24.914,4.733,25,4.974,25c0.271,0,0.543-0.11,0.74-0.328C6.265,24.065,6.99,24,7.279,24H9h4v-2H10.003z"/><path fill="#7e57c2" d="M17,29c-2.761,0-5-2.238-5-5v-2.224C12,12.525,19.526,5,28.776,5H31c2.761,0,5,2.238,5,5 s-2.239,5-5,5h-2.224C25.04,15,22,18.04,22,21.776V24C22,26.762,19.761,29,17,29z"/><path fill="#9575cd" d="M31,15h-1c-2.761,0-5-2.239-5-5v0c0-2.761,2.239-5,5-5h1c2.761,0,5,2.239,5,5v0 C36,12.761,33.761,15,31,15z"/><path fill="#7e57c2" d="M25,43h-1c-6.617,0-12-5.383-12-12v-7c0-2.762,2.239-5,5-5h8c6.617,0,12,5.383,12,12 S31.617,43,25,43z M22,29v2c0,1.103,0.897,2,2,2h1c1.103,0,2-0.897,2-2s-0.897-2-2-2H22z"/><circle cx="33" cy="10" r="1" fill="#4527a0"/><circle cx="29" cy="10" r="1" fill="#4527a0"/><path fill="#212121" d="M24.5,36L24.5,36c-2.485,0-4.5-2.015-4.5-4.5V29h9v2.5C29,33.985,26.985,36,24.5,36z"/><path fill="#fafafa" d="M23,31L23,31c-0.552,0-1-0.448-1-1v-1h2v1C24,30.552,23.552,31,23,31z"/><path fill="#fafafa" d="M26,31L26,31c-0.552,0-1-0.448-1-1v-1h2v1C27,30.552,26.552,31,26,31z"/><path fill="#c2185b" d="M24.5,36c1.329,0,2.507-0.589,3.326-1.507C27.003,33.582,25.824,33,24.5,33 s-2.503,0.582-3.326,1.493C21.993,35.411,23.171,36,24.5,36z"/><circle cx="28" cy="24" r="2" fill="#fff"/><circle cx="27" cy="24" r="1" fill="#212121"/><circle cx="21" cy="24" r="2" fill="#fff"/><circle cx="20" cy="24" r="1" fill="#212121"/></svg>