<svg xmlns="http://www.w3.org/2000/svg" viewBox="0 0 48 48"><path fill="#00e676" d="M19,43h-2c-0.553,0-1-0.447-1-1s0.447-1,1-1h1v-3c0-0.553,0.447-1,1-1s1,0.447,1,1v4 C20,42.553,19.553,43,19,43z"/><path fill="#00e676" d="M23,43h2c0.553,0,1-0.447,1-1s-0.447-1-1-1h-1v-3c0-0.553-0.447-1-1-1s-1,0.447-1,1v4 C22,42.553,22.447,43,23,43z"/><path fill="#00e676" d="M31.843,32.841l0.984,0.003c1.168,0,2.277,0.484,3.043,1.328c0.37,0.407,0.342,1.04-0.068,1.412 c-0.409,0.371-1.041,0.341-1.412-0.068c-0.447-0.492-0.996-0.623-1.347-0.657c0.792,0.799,1.24,1.875,1.209,2.975 c-0.015,0.552-0.473,0.988-1.025,0.975c-0.543-0.014-0.975-0.459-0.975-1c0-0.008,0-0.017,0-0.025 c0.021-0.636-0.267-1.106-0.496-1.379c-0.173,0.85-0.603,1.627-1.242,2.207c-0.409,0.371-1.041,0.341-1.412-0.068 c-0.174-0.191-0.26-0.432-0.26-0.672c0-0.271,0.11-0.543,0.328-0.74c0.606-0.551,0.672-1.276,0.672-1.565v-1.721V22h2V32.841z"/><path fill="#00c853" d="M20.996,39.001c-0.752,0-1.515-0.17-2.232-0.529c-2.47-1.234-3.471-4.238-2.235-6.708L24.91,15H16 c-2.762,0-5-2.238-5-5s2.238-5,5-5h17c1.732,0,3.342,0.897,4.253,2.371c0.911,1.475,0.994,3.315,0.219,4.865l-12,24 C24.596,37.988,22.83,39.001,20.996,39.001z"/><circle cx="30" cy="10" r="2" fill="#fff"/><circle cx="31" cy="10" r="1" fill="#212121"/><circle cx="24" cy="10" r="2" fill="#fff"/><circle cx="25" cy="10" r="1" fill="#212121"/><circle cx="18" cy="10" r="2" fill="#fff"/><circle cx="19" cy="10" r="1" fill="#212121"/><path fill="#212121" d="M28,27c-0.405-1.722-1.811-3-3.5-3s-3.095,1.278-3.5,3H28z"/><path fill="#2e7d32" d="M18,20.125c0.935,4.293,6.377,3.127,5.652,0.719C22.874,18.436,20.288,22.161,18,20.125z"/><path fill="#2e7d32" d="M29.191,20.125c-0.935,4.293-6.377,3.127-5.652,0.719C24.317,18.436,26.902,22.161,29.191,20.125z"/><polygon fill="#26a69a" points="23.979,16.883 28.702,15 24.91,15"/></svg>