<?xml version="1.0" encoding="utf-8"?>
<svg xmlns="http://www.w3.org/2000/svg" viewBox="0 0 50 50" fill="#8c8c8c"><path d="M 25 2 C 12.317 2 2 12.318 2 25 C 2 37.682 12.317 48 25 48 C 37.683 48 48 37.682 48 25 C 48 12.318 37.683 2 25 2 z M 33.003906 17 C 38.931906 17 39 20.96 39 21 L 38 21 L 37 21.021484 C 36.99 20.814484 36.794 19 33 19 C 32.693 19.001 30 19.086984 30 21.583984 C 30 22.712984 31.496297 23.295687 33.779297 24.054688 C 36.227297 24.867688 39 25.789766 39 28.509766 C 39 29.740766 38.602406 30.760969 37.816406 31.542969 C 36.378406 32.975969 34.146 33 34 33 L 33.996094 33 C 28.068094 33 28 29.04 28 29 L 29 29 L 30 28.978516 C 30.01 29.185516 30.206 31 34 31 C 34.307 30.999 37 30.917766 37 28.509766 C 37 27.321766 35.475437 26.725172 33.148438 25.951172 C 30.735437 25.150172 28 24.240984 28 21.583984 C 28 20.311984 28.406938 19.260938 29.210938 18.460938 C 30.671937 17.005938 32.906906 16.97 33.003906 17 z M 18.011719 17.003906 C 22.337719 17.003906 25 20.080094 25 24.996094 C 25 29.902094 22.359719 33 18.011719 33 C 13.652719 33 11 29.912094 11 24.996094 C 11 20.069094 13.704719 17.003906 18.011719 17.003906 z M 18.011719 19.003906 C 13.489719 19.003906 13 23.194094 13 24.996094 C 13 26.801094 13.488719 31 18.011719 31 C 22.514719 31 23 26.801094 23 24.996094 C 23 23.194094 22.514719 19.003906 18.011719 19.003906 z" fill="#8c8c8c"/></svg>
