<svg xmlns="http://www.w3.org/2000/svg" viewBox="0 0 48 48"><path fill="#f57c00" d="M32.598,26.877c-0.536,0.121-1.12-0.06-1.492-0.515c-0.524-0.642-0.428-1.586,0.213-2.111 l3.464-2.828c0.644-0.523,1.587-0.429,2.111,0.213c0.524,0.642,0.428,1.586-0.213,2.111l-3.464,2.828 C33.029,26.728,32.818,26.828,32.598,26.877z"/><path fill="#f57c00" d="M33.285,33.5c-0.483-0.262-0.805-0.782-0.785-1.369c0.028-0.828,0.721-1.477,1.549-1.45l4.47,0.148 c0.829,0.03,1.478,0.721,1.45,1.549c-0.028,0.828-0.721,1.477-1.549,1.45l-4.47-0.148C33.709,33.672,33.483,33.608,33.285,33.5z"/><path fill="#f57c00" d="M30.094,24.535c-0.474,0.278-1.085,0.285-1.578-0.035c-0.694-0.452-0.892-1.38-0.44-2.075 l2.438-3.749c0.454-0.695,1.381-0.892,2.075-0.44c0.694,0.452,0.892,1.38,0.44,2.075l-2.438,3.749 C30.46,24.261,30.289,24.421,30.094,24.535z"/><path fill="#f57c00" d="M33.791,30.229c-0.548-0.039-1.056-0.38-1.281-0.922c-0.317-0.766,0.046-1.642,0.812-1.96 l4.132-1.711c0.767-0.315,1.643,0.046,1.96,0.812c0.317,0.766-0.046,1.642-0.812,1.96l-4.132,1.711 C34.248,30.211,34.016,30.245,33.791,30.229z"/><path fill="#ffa000" d="M26,43h-9c-2.762,0-5-2.238-5-5s2.238-5,5-5h9c1.103,0,2-0.897,2-2s-0.897-2-2-2h-9 c-2.762,0-5-2.238-5-5s2.238-5,5-5h9c6.617,0,12,5.383,12,12S32.617,43,26,43z"/><path fill="#ffa000" d="M17,29c-2.762,0-5-2.238-5-5V10c0-2.762,2.238-5,5-5h13c2.762,0,5,2.238,5,5s-2.238,5-5,5h-8v9 C22,26.762,19.762,29,17,29z"/><circle cx="18" cy="10" r="2" fill="#fff"/><circle cx="17" cy="10" r="1" fill="#212121"/><circle cx="18" cy="24" r="2" fill="#fff"/><circle cx="19" cy="24" r="1" fill="#212121"/><path fill="#212121" d="M26,40h-9c-1.105,0-2-0.895-2-2v0c0-1.105,0.895-2,2-2h9c1.105,0,2,0.895,2,2v0 C28,39.105,27.105,40,26,40z"/><circle cx="27" cy="10" r="1" fill="#f57c00"/><circle cx="31" cy="10" r="1" fill="#f57c00"/><polygon fill="#f57c00" points="22,17 22,15 17,15"/><path fill="#ffa000" d="M17,3L17,3c-0.552,0-1,0.448-1,1v2h2V4C18,3.448,17.552,3,17,3z"/><path fill="#ffa000" d="M21,3L21,3c-0.552,0-1,0.448-1,1v2h2V4C22,3.448,21.552,3,21,3z"/><polygon fill="#fafafa" points="19.5,37 18,40 21,40"/><polygon fill="#fafafa" points="23.5,37 22,40 25,40"/><circle cx="14" cy="17" r="4" fill="#ffa000"/><circle cx="14" cy="17" r="2" fill="#fff"/><circle cx="15" cy="17" r="1" fill="#212121"/></svg>