<?xml version="1.0" standalone="no"?>
<!DOCTYPE svg PUBLIC "-//W3C//DTD SVG 20010904//EN"
 "http://www.w3.org/TR/2001/REC-SVG-20010904/DTD/svg10.dtd">
<svg version="1.0" xmlns="http://www.w3.org/2000/svg"
 width="700.000000pt" height="700.000000pt" viewBox="0 0 700.000000 700.000000"
 preserveAspectRatio="xMidYMid meet">
<metadata>
Created by potrace 1.14, written by Peter Selinger 2001-2017
</metadata>
<g transform="translate(0.000000,700.000000) scale(0.100000,-0.100000)"
fill="#000000" stroke="none">
<path d="M3215 6979 c-38 -4 -92 -10 -120 -14 -522 -61 -1037 -251 -1490 -550
-326 -215 -562 -434 -853 -793 -17 -23 -32 -45 -32 -50 0 -6 -4 -12 -9 -14
-28 -11 -299 -454 -316 -518 -1 -3 -19 -41 -39 -85 -130 -275 -235 -635 -281
-965 -34 -244 -39 -667 -10 -865 2 -16 6 -48 9 -70 5 -40 23 -158 31 -205 3
-14 16 -72 30 -130 14 -58 27 -114 30 -125 2 -11 22 -74 44 -140 98 -304 222
-566 389 -825 55 -84 219 -310 232 -320 4 -3 31 -33 59 -68 65 -78 242 -256
341 -343 326 -285 710 -512 1110 -655 78 -28 301 -96 360 -110 50 -11 273 -54
315 -59 28 -4 57 -8 65 -10 31 -4 177 -18 220 -21 69 -4 389 -4 440 0 130 11
195 18 290 32 562 83 1082 297 1555 642 50 36 92 68 95 71 3 3 32 28 65 56
549 455 955 1092 1135 1780 16 60 31 121 34 135 2 14 11 57 19 95 62 291 78
719 41 1060 -27 253 -129 666 -210 850 -7 17 -29 70 -48 118 -46 112 -130 278
-195 386 -28 46 -51 85 -51 87 0 7 -138 206 -184 264 -396 509 -878 879 -1454
1115 -282 115 -605 199 -887 230 -33 4 -71 9 -85 12 -42 9 -571 11 -645 2z
m444 -1635 c108 -31 214 -98 308 -195 143 -148 200 -267 201 -419 0 -89 -17
-152 -70 -250 -51 -97 -84 -136 -251 -304 l-139 -139 159 -159 c87 -87 161
-157 165 -156 4 2 76 71 160 154 196 194 297 263 423 290 207 45 397 -37 582
-251 100 -116 153 -247 155 -377 2 -113 -9 -166 -58 -265 -74 -154 -229 -297
-392 -360 -58 -23 -82 -27 -177 -26 -126 0 -184 16 -296 83 -86 51 -130 88
-272 228 l-117 116 -160 -159 -159 -159 134 -137 c182 -186 254 -300 287 -453
13 -63 4 -205 -17 -264 -67 -189 -243 -365 -431 -434 -88 -32 -263 -32 -357 1
-211 72 -439 322 -475 517 -36 203 43 366 307 628 l150 150 -157 158 c-86 87
-160 158 -163 158 -4 0 -70 -63 -147 -139 -78 -77 -158 -152 -179 -167 -21
-16 -40 -32 -43 -35 -9 -10 -113 -64 -160 -83 -158 -63 -344 -28 -496 92 -128
102 -234 240 -276 360 -19 56 -23 87 -22 182 0 99 4 124 27 182 70 181 260
364 437 422 76 25 194 30 277 10 147 -34 255 -105 445 -292 l126 -124 156 156
c86 86 156 160 156 164 0 5 -26 33 -57 64 -228 220 -312 338 -354 501 -48 186
15 378 177 541 185 186 385 251 593 190z"/>
<path d="M3449 5065 c-88 -31 -164 -90 -221 -172 -71 -104 -78 -199 -23 -310
28 -57 63 -100 161 -203 70 -71 131 -130 136 -130 15 0 272 262 307 313 59 86
71 194 32 283 -24 54 -109 145 -165 177 -80 47 -167 63 -227 42z"/>
<path d="M4671 3869 c-73 -14 -142 -65 -293 -216 l-143 -144 122 -119 c196
-192 286 -236 423 -205 116 26 271 191 284 303 10 88 -37 203 -115 280 -87 85
-181 119 -278 101z"/>
<path d="M2250 3855 c-70 -19 -110 -43 -176 -109 -84 -85 -118 -157 -112 -240
13 -163 181 -336 327 -338 116 0 174 35 365 226 l139 138 -109 107 c-131 128
-175 164 -246 196 -65 29 -128 36 -188 20z"/>
<path d="M3353 3683 c-84 -85 -153 -158 -153 -161 0 -4 71 -78 158 -165 l157
-157 160 160 159 160 -149 150 c-83 83 -157 155 -165 159 -11 6 -56 -33 -167
-146z"/>
<path d="M3364 2638 c-154 -157 -186 -202 -202 -289 -22 -118 70 -268 213
-345 67 -36 181 -42 239 -14 97 48 197 155 227 243 11 31 15 70 13 109 -6 96
-55 176 -197 324 -67 68 -126 124 -132 124 -6 0 -79 -69 -161 -152z"/>
</g>
</svg>
